<?xml version="1.0" encoding="UTF-8" standalone="no"?>
<!DOCTYPE svg PUBLIC "-//W3C//DTD SVG 1.1//EN"
 "http://www.w3.org/Graphics/SVG/1.1/DTD/svg11.dtd">
<!-- Generated by graphviz version 10.0.1 (0)
 -->
<!-- Title: conway_transitions Pages: 1 -->
<svg width="2061pt" height="963pt"
 viewBox="0.00 0.00 2061.12 962.50" xmlns="http://www.w3.org/2000/svg" xmlns:xlink="http://www.w3.org/1999/xlink">
<g id="graph0" class="graph" transform="scale(1 1) rotate(0) translate(4 958.5)">
<title>conway_transitions</title>
<polygon fill="white" stroke="none" points="-4,4 -4,-958.5 2057.12,-958.5 2057.12,4 -4,4"/>
<text text-anchor="middle" x="1026.56" y="-351.7" font-family="Times,serif" font-size="14.00">NOTE </text>
<text text-anchor="middle" x="1026.56" y="-334.45" font-family="Times,serif" font-size="14.00"> &#160;&#160;&#160;A straight arrow form one node to another represents a sub&#45;rule relationship.</text>
<text text-anchor="middle" x="1026.56" y="-317.2" font-family="Times,serif" font-size="14.00"> &#160;&#160;&#160;A dotted arrow from one node to another represents a dependency:</text>
<text text-anchor="middle" x="1026.56" y="-299.95" font-family="Times,serif" font-size="14.00"> &#160;&#160;&#160;&#160;&#160;that the output of the target rule in an input to the source rule,</text>
<text text-anchor="middle" x="1026.56" y="-282.7" font-family="Times,serif" font-size="14.00"> &#160;&#160;&#160;&#160;&#160;either as part of the source state, the evironment or the signal.</text>
<text text-anchor="middle" x="1026.56" y="-265.45" font-family="Times,serif" font-size="14.00"> &#160;&#160;&#160;In most cases these dependencies are between sub&#45;rules of a rule.</text>
<text text-anchor="middle" x="1026.56" y="-248.2" font-family="Times,serif" font-size="14.00"> &#160;&#160;&#160;In the case of a recursive rule, the sub&#45;rule can also have a dependency on the super rule.</text>
<text text-anchor="middle" x="1026.56" y="-230.95" font-family="Times,serif" font-size="14.00"> &#160;&#160;&#160;Those recursively call themselves while traversing the input signal sequence,</text>
<text text-anchor="middle" x="1026.56" y="-213.7" font-family="Times,serif" font-size="14.00"> &#160;&#160;&#160;&#160;&#160;until reaching the base case with an empty input sequence.</text>
<text text-anchor="middle" x="1026.56" y="-196.45" font-family="Times,serif" font-size="14.00"> &#160;&#160;&#160;A blue colored box indicates a trigger in consensus that triggers the rule in ledger.</text>
<text text-anchor="middle" x="1026.56" y="-163.2" font-family="Times,serif" font-size="14.00"> &#160;&#160;&#160;NOTE</text>
<text text-anchor="middle" x="1026.56" y="-145.95" font-family="Times,serif" font-size="14.00"> &#160;&#160;&#160;In the Shelley ledger, the @CHAIN@ rule is used to apply a whole block.</text>
<text text-anchor="middle" x="1026.56" y="-128.7" font-family="Times,serif" font-size="14.00"> &#160;&#160;&#160;In consensus, we split up the application of a block to the ledger into </text>
<text text-anchor="middle" x="1026.56" y="-111.45" font-family="Times,serif" font-size="14.00"> &#160;&#160;&#160;separate steps that are performed together by &#39;applyExtLedgerState&#39;:</text>
<text text-anchor="middle" x="1026.56" y="-94.2" font-family="Times,serif" font-size="14.00"> &#160;&#160;&#160;</text>
<text text-anchor="middle" x="1026.56" y="-76.95" font-family="Times,serif" font-size="14.00"> &#160;&#160;&#160;1. &#39;applyChainTickLedgerResult&#39;: executes the @TICK@ transition</text>
<text text-anchor="middle" x="1026.56" y="-59.7" font-family="Times,serif" font-size="14.00"> &#160;&#160;&#160;2. &#39;validateHeader&#39;:</text>
<text text-anchor="middle" x="1026.56" y="-42.45" font-family="Times,serif" font-size="14.00"> &#160;&#160;&#160;&#160;&#160;&#160;2.1. &#39;validateEnvelope&#39;: executes the @chainChecks@</text>
<text text-anchor="middle" x="1026.56" y="-25.2" font-family="Times,serif" font-size="14.00"> &#160;&#160;&#160;&#160;&#160;&#160;2.2. &#39;updateChainDepState&#39;: executes the @PRTCL@ transition</text>
<text text-anchor="middle" x="1026.56" y="-7.95" font-family="Times,serif" font-size="14.00"> &#160;&#160;&#160;3. &#39;applyBlockLedgerResult&#39;: executes the @BBODY@ transition</text>
<!-- applyTickOpts -->
<g id="node1" class="node">
<title>applyTickOpts</title>
<polygon fill="none" stroke="blue" points="926.25,-954.5 608.75,-954.5 608.75,-918.5 926.25,-918.5 926.25,-954.5"/>
<text text-anchor="middle" x="767.5" y="-931.83" font-family="Times,serif" font-size="14.00">ApplyBlock.applyTickOpts (API.Validation)</text>
</g>
<!-- TICK -->
<g id="node25" class="node">
<title>TICK</title>
<polygon fill="none" stroke="black" points="928.12,-882.5 606.88,-882.5 606.88,-840 928.12,-840 928.12,-882.5"/>
<text text-anchor="middle" x="767.5" y="-865.2" font-family="Times,serif" font-size="14.00">TICK (shelley) &#160;&#160;&#160;&#160;</text>
<text text-anchor="middle" x="767.5" y="-847.95" font-family="Times,serif" font-size="14.00">env:(),state:NewEpochState,signal:SlotNo.</text>
</g>
<!-- applyTickOpts&#45;&gt;TICK -->
<g id="edge1" class="edge">
<title>applyTickOpts&#45;&gt;TICK</title>
<path fill="none" stroke="black" d="M767.5,-918.14C767.5,-910.95 767.5,-902.38 767.5,-894.13"/>
<polygon fill="black" stroke="black" points="771,-894.38 767.5,-884.38 764,-894.38 771,-894.38"/>
</g>
<!-- applyBlockOpts -->
<g id="node2" class="node">
<title>applyBlockOpts</title>
<polygon fill="none" stroke="blue" points="1627.12,-954.5 1299.88,-954.5 1299.88,-918.5 1627.12,-918.5 1627.12,-954.5"/>
<text text-anchor="middle" x="1463.5" y="-931.83" font-family="Times,serif" font-size="14.00">ApplyBlock.applyBlockOpts (API.Validation)</text>
</g>
<!-- BBODY -->
<g id="node5" class="node">
<title>BBODY</title>
<polygon fill="none" stroke="black" points="1713.75,-882.5 1213.25,-882.5 1213.25,-840 1713.75,-840 1713.75,-882.5"/>
<text text-anchor="middle" x="1463.5" y="-865.2" font-family="Times,serif" font-size="14.00">BBODY (alonzo) &#160;&#160;&#160;&#160;</text>
<text text-anchor="middle" x="1463.5" y="-847.95" font-family="Times,serif" font-size="14.00">env:BbodyEnv,state:ShelleyBbodyState,signal:Block(BHeaderView).</text>
</g>
<!-- applyBlockOpts&#45;&gt;BBODY -->
<g id="edge2" class="edge">
<title>applyBlockOpts&#45;&gt;BBODY</title>
<path fill="none" stroke="black" d="M1463.5,-918.14C1463.5,-910.95 1463.5,-902.38 1463.5,-894.13"/>
<polygon fill="black" stroke="black" points="1467,-894.38 1463.5,-884.38 1460,-894.38 1467,-894.38"/>
</g>
<!-- applyTx -->
<g id="node3" class="node">
<title>applyTx</title>
<polygon fill="none" stroke="blue" points="1896.5,-800.75 1712.5,-800.75 1712.5,-764.75 1896.5,-764.75 1896.5,-800.75"/>
<text text-anchor="middle" x="1804.5" y="-778.08" font-family="Times,serif" font-size="14.00">ApplyTx (API.Mempool)</text>
</g>
<!-- LEDGER -->
<g id="node14" class="node">
<title>LEDGER</title>
<polygon fill="none" stroke="black" points="1627.88,-725.5 1299.12,-725.5 1299.12,-683 1627.88,-683 1627.88,-725.5"/>
<text text-anchor="middle" x="1463.5" y="-708.2" font-family="Times,serif" font-size="14.00">LEDGER (conway) &#160;&#160;&#160;</text>
<text text-anchor="middle" x="1463.5" y="-690.95" font-family="Times,serif" font-size="14.00">env:LedgerEnv,state:LedgerState,signal:Tx.</text>
</g>
<!-- applyTx&#45;&gt;LEDGER -->
<g id="edge3" class="edge">
<title>applyTx&#45;&gt;LEDGER</title>
<path fill="none" stroke="black" d="M1726.7,-764.3C1679.36,-753.68 1618.32,-739.98 1566.94,-728.46"/>
<polygon fill="black" stroke="black" points="1567.8,-725.06 1557.28,-726.29 1566.27,-731.89 1567.8,-725.06"/>
</g>
<!-- futureLedger -->
<g id="node4" class="node">
<title>futureLedger</title>
<polygon fill="none" stroke="blue" points="1967.25,-954.5 1817.75,-954.5 1817.75,-918.5 1967.25,-918.5 1967.25,-954.5"/>
<text text-anchor="middle" x="1892.5" y="-931.83" font-family="Times,serif" font-size="14.00">FutureLedgerView</text>
</g>
<!-- TICKF -->
<g id="node18" class="node">
<title>TICKF</title>
<polygon fill="none" stroke="black" points="2053.12,-882.5 1731.88,-882.5 1731.88,-840 2053.12,-840 2053.12,-882.5"/>
<text text-anchor="middle" x="1892.5" y="-865.2" font-family="Times,serif" font-size="14.00">TICKF (conway) &#160;&#160;&#160;&#160;</text>
<text text-anchor="middle" x="1892.5" y="-847.95" font-family="Times,serif" font-size="14.00">env:(),state:NewEpochState,signal:SlotNo.</text>
</g>
<!-- futureLedger&#45;&gt;TICKF -->
<g id="edge4" class="edge">
<title>futureLedger&#45;&gt;TICKF</title>
<path fill="none" stroke="black" d="M1892.5,-918.14C1892.5,-910.95 1892.5,-902.38 1892.5,-894.13"/>
<polygon fill="black" stroke="black" points="1896,-894.38 1892.5,-884.38 1889,-894.38 1896,-894.38"/>
</g>
<!-- LEDGERS -->
<g id="node21" class="node">
<title>LEDGERS</title>
<polygon fill="none" stroke="black" points="1676.62,-804 1250.38,-804 1250.38,-761.5 1676.62,-761.5 1676.62,-804"/>
<text text-anchor="middle" x="1463.5" y="-786.7" font-family="Times,serif" font-size="14.00">LEDGERS (shelley) &#160;</text>
<text text-anchor="middle" x="1463.5" y="-769.45" font-family="Times,serif" font-size="14.00">env:ShelleyLedgersEnv,state:LedgerState,signal:Seq(Tx).</text>
</g>
<!-- BBODY&#45;&gt;LEDGERS -->
<g id="edge5" class="edge">
<title>BBODY&#45;&gt;LEDGERS</title>
<path fill="none" stroke="black" d="M1463.5,-839.75C1463.5,-832.37 1463.5,-823.87 1463.5,-815.75"/>
<polygon fill="black" stroke="black" points="1467,-815.82 1463.5,-805.82 1460,-815.82 1467,-815.82"/>
</g>
<!-- UTXO -->
<g id="node6" class="node">
<title>UTXO</title>
<polygon fill="none" stroke="black" points="1995.12,-568.5 1691.88,-568.5 1691.88,-526 1995.12,-526 1995.12,-568.5"/>
<text text-anchor="middle" x="1843.5" y="-551.2" font-family="Times,serif" font-size="14.00">UTXO (babbage) &#160;&#160;&#160;&#160;</text>
<text text-anchor="middle" x="1843.5" y="-533.95" font-family="Times,serif" font-size="14.00">env:UtxoEnv,state:UTxOState,signal:Tx.</text>
</g>
<!-- UTXOS -->
<g id="node19" class="node">
<title>UTXOS</title>
<polygon fill="none" stroke="black" points="2018.75,-490 1668.25,-490 1668.25,-447.5 2018.75,-447.5 2018.75,-490"/>
<text text-anchor="middle" x="1843.5" y="-472.7" font-family="Times,serif" font-size="14.00">UTXOS (conway) &#160;&#160;&#160;&#160;</text>
<text text-anchor="middle" x="1843.5" y="-455.45" font-family="Times,serif" font-size="14.00">env:UtxoEnv,state:UTxOState,signal:AlonzoTx.</text>
</g>
<!-- UTXO&#45;&gt;UTXOS -->
<g id="edge24" class="edge">
<title>UTXO&#45;&gt;UTXOS</title>
<path fill="none" stroke="black" d="M1843.5,-525.75C1843.5,-518.37 1843.5,-509.87 1843.5,-501.75"/>
<polygon fill="black" stroke="black" points="1847,-501.82 1843.5,-491.82 1840,-501.82 1847,-501.82"/>
</g>
<!-- CERT -->
<g id="node7" class="node">
<title>CERT</title>
<polygon fill="none" stroke="black" points="1584.88,-490 1262.12,-490 1262.12,-447.5 1584.88,-447.5 1584.88,-490"/>
<text text-anchor="middle" x="1423.5" y="-472.7" font-family="Times,serif" font-size="14.00">CERT (conway) &#160;&#160;&#160;&#160;&#160;</text>
<text text-anchor="middle" x="1423.5" y="-455.45" font-family="Times,serif" font-size="14.00">env:CertEnv,state:CertState,signal:TxCert.</text>
</g>
<!-- CERTS -->
<g id="node8" class="node">
<title>CERTS</title>
<polygon fill="none" stroke="black" points="1607.38,-568.5 1239.62,-568.5 1239.62,-526 1607.38,-526 1607.38,-568.5"/>
<text text-anchor="middle" x="1423.5" y="-551.2" font-family="Times,serif" font-size="14.00">CERTS (conway) &#160;&#160;&#160;&#160;</text>
<text text-anchor="middle" x="1423.5" y="-533.95" font-family="Times,serif" font-size="14.00">env:CertsEnv,state:CertState,signal:Seq(TxCert).</text>
</g>
<!-- CERT&#45;&gt;CERTS -->
<g id="edge27" class="edge">
<title>CERT&#45;&gt;CERTS</title>
<path fill="none" stroke="black" stroke-dasharray="1,5" d="M1429.56,-490.31C1430.18,-497.69 1430.38,-506.19 1430.17,-514.31"/>
<polygon fill="black" stroke="black" points="1426.68,-514.07 1429.64,-524.24 1433.67,-514.44 1426.68,-514.07"/>
</g>
<!-- DELEG -->
<g id="node9" class="node">
<title>DELEG</title>
<polygon fill="none" stroke="black" points="1179.88,-411.5 791.12,-411.5 791.12,-369 1179.88,-369 1179.88,-411.5"/>
<text text-anchor="middle" x="985.5" y="-394.2" font-family="Times,serif" font-size="14.00">DELEG (conway) &#160;&#160;&#160;&#160;</text>
<text text-anchor="middle" x="985.5" y="-376.95" font-family="Times,serif" font-size="14.00">env:PParams,state:DState,signal:ConwayDelegCert.</text>
</g>
<!-- CERT&#45;&gt;DELEG -->
<g id="edge28" class="edge">
<title>CERT&#45;&gt;DELEG</title>
<path fill="none" stroke="black" d="M1304.97,-447.05C1246.3,-436.8 1175.34,-424.41 1115.22,-413.91"/>
<polygon fill="black" stroke="black" points="1116.07,-410.5 1105.61,-412.23 1114.86,-417.4 1116.07,-410.5"/>
</g>
<!-- GOVCERT -->
<g id="node13" class="node">
<title>GOVCERT</title>
<polygon fill="none" stroke="black" points="1649.38,-411.5 1197.62,-411.5 1197.62,-369 1649.38,-369 1649.38,-411.5"/>
<text text-anchor="middle" x="1423.5" y="-394.2" font-family="Times,serif" font-size="14.00">GOVCERT (conway) &#160;&#160;</text>
<text text-anchor="middle" x="1423.5" y="-376.95" font-family="Times,serif" font-size="14.00">env:ConwayGovCertEnv,state:VState,signal:ConwayGovCert.</text>
</g>
<!-- CERT&#45;&gt;GOVCERT -->
<g id="edge30" class="edge">
<title>CERT&#45;&gt;GOVCERT</title>
<path fill="none" stroke="black" d="M1423.5,-447.25C1423.5,-439.87 1423.5,-431.37 1423.5,-423.25"/>
<polygon fill="black" stroke="black" points="1427,-423.32 1423.5,-413.32 1420,-423.32 1427,-423.32"/>
</g>
<!-- POOL -->
<g id="node16" class="node">
<title>POOL</title>
<polygon fill="none" stroke="black" points="1979.62,-411.5 1667.38,-411.5 1667.38,-369 1979.62,-369 1979.62,-411.5"/>
<text text-anchor="middle" x="1823.5" y="-394.2" font-family="Times,serif" font-size="14.00">POOL (conway) &#160;&#160;&#160;&#160;&#160;</text>
<text text-anchor="middle" x="1823.5" y="-376.95" font-family="Times,serif" font-size="14.00">env:PoolEnv,state:PState,signal:PoolCert.</text>
</g>
<!-- CERT&#45;&gt;POOL -->
<g id="edge29" class="edge">
<title>CERT&#45;&gt;POOL</title>
<path fill="none" stroke="black" d="M1531.75,-447.05C1584.99,-436.86 1649.32,-424.56 1704.01,-414.1"/>
<polygon fill="black" stroke="black" points="1704.52,-417.57 1713.68,-412.25 1703.2,-410.69 1704.52,-417.57"/>
</g>
<!-- CERTS&#45;&gt;CERT -->
<g id="edge26" class="edge">
<title>CERTS&#45;&gt;CERT</title>
<path fill="none" stroke="black" d="M1417.44,-525.75C1416.82,-518.37 1416.62,-509.87 1416.83,-501.75"/>
<polygon fill="black" stroke="black" points="1420.32,-501.99 1417.36,-491.82 1413.33,-501.62 1420.32,-501.99"/>
</g>
<!-- CERTS&#45;&gt;CERTS -->
<g id="edge25" class="edge">
<title>CERTS&#45;&gt;CERTS</title>
<path fill="none" stroke="black" d="M1607.59,-557.44C1618.7,-555.02 1625.38,-551.62 1625.38,-547.25 1625.38,-544.59 1622.9,-542.29 1618.45,-540.35"/>
<polygon fill="black" stroke="black" points="1619.62,-537.04 1609.04,-537.5 1617.59,-543.74 1619.62,-537.04"/>
</g>
<!-- ENACT -->
<g id="node10" class="node">
<title>ENACT</title>
<polygon fill="none" stroke="black" points="833.5,-490 523.5,-490 523.5,-447.5 833.5,-447.5 833.5,-490"/>
<text text-anchor="middle" x="678.5" y="-472.7" font-family="Times,serif" font-size="14.00">ENACT (conway) &#160;&#160;&#160;&#160;</text>
<text text-anchor="middle" x="678.5" y="-455.45" font-family="Times,serif" font-size="14.00">env:(),state:EnactState,signal:GovAction.</text>
</g>
<!-- EPOCH -->
<g id="node11" class="node">
<title>EPOCH</title>
<polygon fill="none" stroke="black" points="857.88,-647 499.12,-647 499.12,-604.5 857.88,-604.5 857.88,-647"/>
<text text-anchor="middle" x="678.5" y="-629.7" font-family="Times,serif" font-size="14.00">EPOCH (conway) &#160;&#160;&#160;&#160;</text>
<text text-anchor="middle" x="678.5" y="-612.45" font-family="Times,serif" font-size="14.00">env:PoolDistr,state:EpochState,signal:EpochNo.</text>
</g>
<!-- RATIFY -->
<g id="node17" class="node">
<title>RATIFY</title>
<polygon fill="none" stroke="black" points="870.62,-568.5 486.38,-568.5 486.38,-526 870.62,-526 870.62,-568.5"/>
<text text-anchor="middle" x="678.5" y="-551.2" font-family="Times,serif" font-size="14.00">RATIFY (conway) &#160;&#160;&#160;</text>
<text text-anchor="middle" x="678.5" y="-533.95" font-family="Times,serif" font-size="14.00">env:RatifyEnv,state:RatifyState,signal:RatifySignal.</text>
</g>
<!-- EPOCH&#45;&gt;RATIFY -->
<g id="edge11" class="edge">
<title>EPOCH&#45;&gt;RATIFY</title>
<path fill="none" stroke="black" d="M678.5,-604.25C678.5,-596.87 678.5,-588.37 678.5,-580.25"/>
<polygon fill="black" stroke="black" points="682,-580.32 678.5,-570.32 675,-580.32 682,-580.32"/>
</g>
<!-- POOLREAP -->
<g id="node22" class="node">
<title>POOLREAP</title>
<polygon fill="none" stroke="black" points="505,-490 0,-490 0,-447.5 505,-447.5 505,-490"/>
<text text-anchor="middle" x="252.5" y="-472.7" font-family="Times,serif" font-size="14.00">POOLREAP (shelley) </text>
<text text-anchor="middle" x="252.5" y="-455.45" font-family="Times,serif" font-size="14.00">env:ShelleyPoolreapEnv,state:ShelleyPoolreapState,signal:EpochNo.</text>
</g>
<!-- EPOCH&#45;&gt;POOLREAP -->
<g id="edge12" class="edge">
<title>EPOCH&#45;&gt;POOLREAP</title>
<path fill="none" stroke="black" d="M594.55,-604.08C558.2,-594.41 515.38,-582.04 477.5,-568.5 416.94,-546.86 349.68,-516.46 304.61,-495.12"/>
<polygon fill="black" stroke="black" points="306.4,-492.1 295.86,-490.96 303.39,-498.42 306.4,-492.1"/>
</g>
<!-- SNAP -->
<g id="node24" class="node">
<title>SNAP</title>
<polygon fill="none" stroke="black" points="1147.38,-490 851.62,-490 851.62,-447.5 1147.38,-447.5 1147.38,-490"/>
<text text-anchor="middle" x="999.5" y="-472.7" font-family="Times,serif" font-size="14.00">SNAP (shelley) &#160;&#160;&#160;&#160;</text>
<text text-anchor="middle" x="999.5" y="-455.45" font-family="Times,serif" font-size="14.00">env:SnapEnv,state:SnapShots,signal:().</text>
</g>
<!-- EPOCH&#45;&gt;SNAP -->
<g id="edge10" class="edge">
<title>EPOCH&#45;&gt;SNAP</title>
<path fill="none" stroke="black" d="M783.89,-604.05C815.67,-595.52 849.94,-583.92 879.5,-568.5 914.71,-550.14 949.1,-520.24 971.98,-498.15"/>
<polygon fill="black" stroke="black" points="974.4,-500.67 979.08,-491.17 969.5,-495.68 974.4,-500.67"/>
</g>
<!-- GOV -->
<g id="node12" class="node">
<title>GOV</title>
<polygon fill="none" stroke="black" points="1673.62,-647 1253.38,-647 1253.38,-604.5 1673.62,-604.5 1673.62,-647"/>
<text text-anchor="middle" x="1463.5" y="-629.7" font-family="Times,serif" font-size="14.00">GOV (conway) &#160;&#160;&#160;&#160;&#160;&#160;</text>
<text text-anchor="middle" x="1463.5" y="-612.45" font-family="Times,serif" font-size="14.00">env:GovEnv,state:GovActionState,signal:GovProcedures.</text>
</g>
<!-- LEDGER&#45;&gt;CERTS -->
<g id="edge20" class="edge">
<title>LEDGER&#45;&gt;CERTS</title>
<path fill="none" stroke="black" d="M1328.5,-682.52C1290.44,-673.76 1256.17,-662.04 1244.5,-647 1232.92,-632.07 1233.32,-619.73 1244.5,-604.5 1253.81,-591.82 1265.97,-581.92 1279.58,-574.21"/>
<polygon fill="black" stroke="black" points="1281.1,-577.36 1288.38,-569.67 1277.89,-571.14 1281.1,-577.36"/>
</g>
<!-- LEDGER&#45;&gt;GOV -->
<g id="edge21" class="edge">
<title>LEDGER&#45;&gt;GOV</title>
<path fill="none" stroke="black" d="M1463.5,-682.75C1463.5,-675.37 1463.5,-666.87 1463.5,-658.75"/>
<polygon fill="black" stroke="black" points="1467,-658.82 1463.5,-648.82 1460,-658.82 1467,-658.82"/>
</g>
<!-- UTXOW -->
<g id="node20" class="node">
<title>UTXOW</title>
<polygon fill="none" stroke="black" points="1995.12,-647 1691.88,-647 1691.88,-604.5 1995.12,-604.5 1995.12,-647"/>
<text text-anchor="middle" x="1843.5" y="-629.7" font-family="Times,serif" font-size="14.00">UTXOW (babbage) &#160;&#160;&#160;&#160;</text>
<text text-anchor="middle" x="1843.5" y="-612.45" font-family="Times,serif" font-size="14.00">env:UtxoEnv,state:UTxOState,signal:Tx.</text>
</g>
<!-- LEDGER&#45;&gt;UTXOW -->
<g id="edge19" class="edge">
<title>LEDGER&#45;&gt;UTXOW</title>
<path fill="none" stroke="black" d="M1566.33,-682.55C1616.71,-672.41 1677.52,-660.16 1729.33,-649.73"/>
<polygon fill="black" stroke="black" points="1729.99,-653.17 1739.1,-647.77 1728.61,-646.31 1729.99,-653.17"/>
</g>
<!-- LEDGER&#45;&gt;LEDGERS -->
<g id="edge18" class="edge">
<title>LEDGER&#45;&gt;LEDGERS</title>
<path fill="none" stroke="black" stroke-dasharray="1,5" d="M1469.56,-725.81C1470.18,-733.19 1470.38,-741.69 1470.17,-749.81"/>
<polygon fill="black" stroke="black" points="1466.68,-749.57 1469.64,-759.74 1473.67,-749.94 1466.68,-749.57"/>
</g>
<!-- NEWEPOCH -->
<g id="node15" class="node">
<title>NEWEPOCH</title>
<polygon fill="none" stroke="black" points="847,-725.5 510,-725.5 510,-683 847,-683 847,-725.5"/>
<text text-anchor="middle" x="678.5" y="-708.2" font-family="Times,serif" font-size="14.00">NEWEPOCH (conway) &#160;</text>
<text text-anchor="middle" x="678.5" y="-690.95" font-family="Times,serif" font-size="14.00">env:(),state:NewEpochState,signal:EpochNo.</text>
</g>
<!-- NEWEPOCH&#45;&gt;EPOCH -->
<g id="edge9" class="edge">
<title>NEWEPOCH&#45;&gt;EPOCH</title>
<path fill="none" stroke="black" d="M678.5,-682.75C678.5,-675.37 678.5,-666.87 678.5,-658.75"/>
<polygon fill="black" stroke="black" points="682,-658.82 678.5,-648.82 675,-658.82 682,-658.82"/>
</g>
<!-- RATIFY&#45;&gt;ENACT -->
<g id="edge15" class="edge">
<title>RATIFY&#45;&gt;ENACT</title>
<path fill="none" stroke="black" d="M678.5,-525.75C678.5,-518.37 678.5,-509.87 678.5,-501.75"/>
<polygon fill="black" stroke="black" points="682,-501.82 678.5,-491.82 675,-501.82 682,-501.82"/>
</g>
<!-- RATIFY&#45;&gt;POOLREAP -->
<g id="edge14" class="edge">
<title>RATIFY&#45;&gt;POOLREAP</title>
<path fill="none" stroke="black" stroke-dasharray="1,5" d="M563.22,-525.55C506.27,-515.32 437.43,-502.96 379.03,-492.47"/>
<polygon fill="black" stroke="black" points="379.82,-489.06 369.36,-490.74 378.59,-495.95 379.82,-489.06"/>
</g>
<!-- RATIFY&#45;&gt;SNAP -->
<g id="edge13" class="edge">
<title>RATIFY&#45;&gt;SNAP</title>
<path fill="none" stroke="black" stroke-dasharray="1,5" d="M765.37,-525.55C807.39,-515.53 858,-503.47 901.4,-493.13"/>
<polygon fill="black" stroke="black" points="902.17,-496.54 911.09,-490.82 900.55,-489.73 902.17,-496.54"/>
</g>
<!-- UTXOW&#45;&gt;UTXO -->
<g id="edge22" class="edge">
<title>UTXOW&#45;&gt;UTXO</title>
<path fill="none" stroke="black" d="M1843.5,-604.25C1843.5,-596.87 1843.5,-588.37 1843.5,-580.25"/>
<polygon fill="black" stroke="black" points="1847,-580.32 1843.5,-570.32 1840,-580.32 1847,-580.32"/>
</g>
<!-- UTXOW&#45;&gt;CERTS -->
<g id="edge23" class="edge">
<title>UTXOW&#45;&gt;CERTS</title>
<path fill="none" stroke="black" stroke-dasharray="1,5" d="M1729.84,-604.05C1673.7,-593.82 1605.82,-581.46 1548.25,-570.97"/>
<polygon fill="black" stroke="black" points="1549.2,-567.59 1538.74,-569.24 1547.95,-574.48 1549.2,-567.59"/>
</g>
<!-- LEDGERS&#45;&gt;LEDGER -->
<g id="edge17" class="edge">
<title>LEDGERS&#45;&gt;LEDGER</title>
<path fill="none" stroke="black" d="M1457.44,-761.25C1456.82,-753.87 1456.62,-745.37 1456.83,-737.25"/>
<polygon fill="black" stroke="black" points="1460.32,-737.49 1457.36,-727.32 1453.33,-737.12 1460.32,-737.49"/>
</g>
<!-- LEDGERS&#45;&gt;LEDGERS -->
<g id="edge16" class="edge">
<title>LEDGERS&#45;&gt;LEDGERS</title>
<path fill="none" stroke="black" d="M1676.86,-792.42C1688.02,-790.03 1694.62,-786.81 1694.62,-782.75 1694.62,-780.27 1692.17,-778.11 1687.73,-776.26"/>
<polygon fill="black" stroke="black" points="1688.9,-772.95 1678.32,-773.51 1686.93,-779.67 1688.9,-772.95"/>
</g>
<!-- RUPD -->
<g id="node23" class="node">
<title>RUPD</title>
<polygon fill="none" stroke="black" points="1151.75,-804 657.25,-804 657.25,-761.5 1151.75,-761.5 1151.75,-804"/>
<text text-anchor="middle" x="904.5" y="-786.7" font-family="Times,serif" font-size="14.00">RUPD (shelley) &#160;&#160;&#160;&#160;</text>
<text text-anchor="middle" x="904.5" y="-769.45" font-family="Times,serif" font-size="14.00">env:RupdEnv,state:StrictMaybe(PulsingRewUpdate),signal:SlotNo.</text>
</g>
<!-- RUPD&#45;&gt;NEWEPOCH -->
<g id="edge8" class="edge">
<title>RUPD&#45;&gt;NEWEPOCH</title>
<path fill="none" stroke="black" stroke-dasharray="1,5" d="M843.34,-761.05C814.7,-751.35 780.39,-739.74 750.5,-729.62"/>
<polygon fill="black" stroke="black" points="751.74,-726.34 741.14,-726.45 749.49,-732.98 751.74,-726.34"/>
</g>
<!-- TICK&#45;&gt;NEWEPOCH -->
<g id="edge7" class="edge">
<title>TICK&#45;&gt;NEWEPOCH</title>
<path fill="none" stroke="black" d="M691.2,-839.56C674.34,-831.29 658.53,-819.83 648.5,-804 635.29,-783.15 644.98,-756.15 656.75,-735.66"/>
<polygon fill="black" stroke="black" points="659.72,-737.52 662,-727.17 653.76,-733.84 659.72,-737.52"/>
</g>
<!-- TICK&#45;&gt;RUPD -->
<g id="edge6" class="edge">
<title>TICK&#45;&gt;RUPD</title>
<path fill="none" stroke="black" d="M804.57,-839.55C820.87,-830.45 840.2,-819.66 857.49,-810"/>
<polygon fill="black" stroke="black" points="859.05,-813.14 866.07,-805.21 855.64,-807.03 859.05,-813.14"/>
</g>
</g>
</svg>
