<?xml version="1.0" encoding="UTF-8" ?>
<svg xmlns="http://www.w3.org/2000/svg" xmlns:xlink="http://www.w3.org/1999/xlink" width="536pt" height="851pt" viewBox="0.00 0.00 535.94 851.20">
<g id="graph0" class="graph" transform="scale(1 1) rotate(0) translate(4 847.2)">
<title>shelley_transitions</title>
<polygon fill="#ffffff" stroke="transparent" points="-4,4 -4,-847.2 531.9436,-847.2 531.9436,4 -4,4"/>
<text text-anchor="middle" x="263.9718" y="-142.6" font-family="Times,serif" font-size="14.00" fill="#000000">NOTE </text>
<text text-anchor="middle" x="263.9718" y="-125.8" font-family="Times,serif" font-size="14.00" fill="#000000">    A straight arrow form one node to another represents a sub-rule relationship.</text>
<text text-anchor="middle" x="263.9718" y="-109" font-family="Times,serif" font-size="14.00" fill="#000000">    A dotted arrow from one node to another represents a dependency:</text>
<text text-anchor="middle" x="263.9718" y="-92.2" font-family="Times,serif" font-size="14.00" fill="#000000">      that the output of the target rule in an input to the source rule,</text>
<text text-anchor="middle" x="263.9718" y="-75.4" font-family="Times,serif" font-size="14.00" fill="#000000">      either as part of the source state, the evironment or the signal.</text>
<text text-anchor="middle" x="263.9718" y="-58.6" font-family="Times,serif" font-size="14.00" fill="#000000">    In most cases these dependencies are between sub-rules of a rule.</text>
<text text-anchor="middle" x="263.9718" y="-41.8" font-family="Times,serif" font-size="14.00" fill="#000000">    In the case of a recursive rule, the sub-rule can also have a dependency on the super rule.</text>
<text text-anchor="middle" x="263.9718" y="-25" font-family="Times,serif" font-size="14.00" fill="#000000">    Those recursively call themselves while traversing the input signal sequence,</text>
<text text-anchor="middle" x="263.9718" y="-8.2" font-family="Times,serif" font-size="14.00" fill="#000000">      until reaching the base case with an empty input sequence.</text>
<!-- chain -->
<g id="node1" class="node">
<title>chain</title>
<ellipse fill="none" stroke="#000000" cx="345.2719" cy="-825.2" rx="31.9012" ry="18"/>
<text text-anchor="middle" x="345.2719" y="-821" font-family="Times,serif" font-size="14.00" fill="#000000">chain</text>
</g>
<!-- tick -->
<g id="node2" class="node">
<title>tick</title>
<ellipse fill="none" stroke="#000000" cx="292.2719" cy="-609.2" rx="27" ry="18"/>
<text text-anchor="middle" x="292.2719" y="-605" font-family="Times,serif" font-size="14.00" fill="#000000">tick</text>
</g>
<!-- chain&#45;&gt;tick -->
<g id="edge1" class="edge">
<title>chain-&gt;tick</title>
<path fill="none" stroke="#000000" d="M319.3378,-814.3004C301.983,-805.468 280.5126,-791.1924 270.2719,-771.2 247.9909,-727.7023 265.6354,-669.4294 279.577,-635.9355"/>
<polygon fill="#000000" stroke="#000000" points="282.9543,-636.9461 283.7365,-626.3802 276.536,-634.1522 282.9543,-636.9461"/>
</g>
<!-- bbody -->
<g id="node3" class="node">
<title>bbody</title>
<ellipse fill="none" stroke="#000000" cx="314.2719" cy="-753.2" rx="35.3587" ry="18"/>
<text text-anchor="middle" x="314.2719" y="-749" font-family="Times,serif" font-size="14.00" fill="#000000">bbody</text>
</g>
<!-- chain&#45;&gt;bbody -->
<g id="edge2" class="edge">
<title>chain-&gt;bbody</title>
<path fill="none" stroke="#000000" d="M337.609,-807.4022C334.0802,-799.2064 329.816,-789.3024 325.9031,-780.2145"/>
<polygon fill="#000000" stroke="#000000" points="329.016,-778.5938 321.8467,-770.793 322.5866,-781.362 329.016,-778.5938"/>
</g>
<!-- prtcl -->
<g id="node4" class="node">
<title>prtcl</title>
<ellipse fill="none" stroke="#000000" cx="377.2719" cy="-681.2" rx="28.9696" ry="18"/>
<text text-anchor="middle" x="377.2719" y="-677" font-family="Times,serif" font-size="14.00" fill="#000000">prtcl</text>
</g>
<!-- chain&#45;&gt;prtcl -->
<g id="edge3" class="edge">
<title>chain-&gt;prtcl</title>
<path fill="none" stroke="#000000" d="M349.7323,-807.2296C352.3024,-796.7395 355.5524,-783.2395 358.2719,-771.2 362.9559,-750.4632 367.9063,-726.9556 371.5795,-709.1667"/>
<polygon fill="#000000" stroke="#000000" points="375.0507,-709.662 373.6351,-699.1621 368.194,-708.253 375.0507,-709.662"/>
</g>
<!-- tickn -->
<g id="node5" class="node">
<title>tickn</title>
<ellipse fill="none" stroke="#000000" cx="435.2719" cy="-753.2" rx="30.1958" ry="18"/>
<text text-anchor="middle" x="435.2719" y="-749" font-family="Times,serif" font-size="14.00" fill="#000000">tickn</text>
</g>
<!-- chain&#45;&gt;tickn -->
<g id="edge4" class="edge">
<title>chain-&gt;tickn</title>
<path fill="none" stroke="#000000" d="M363.9199,-810.2816C376.9181,-799.883 394.4453,-785.8613 408.8751,-774.3174"/>
<polygon fill="#000000" stroke="#000000" points="411.3334,-776.833 416.9556,-767.853 406.9605,-771.3669 411.3334,-776.833"/>
</g>
<!-- rupd -->
<g id="node9" class="node">
<title>rupd</title>
<ellipse fill="none" stroke="#000000" cx="300.2719" cy="-537.2" rx="28.9754" ry="18"/>
<text text-anchor="middle" x="300.2719" y="-533" font-family="Times,serif" font-size="14.00" fill="#000000">rupd</text>
</g>
<!-- tick&#45;&gt;rupd -->
<g id="edge12" class="edge">
<title>tick-&gt;rupd</title>
<path fill="none" stroke="#000000" d="M294.2906,-591.0314C295.1462,-583.331 296.1636,-574.1743 297.1145,-565.6166"/>
<polygon fill="#000000" stroke="#000000" points="300.6001,-565.9386 298.226,-555.6133 293.643,-565.1656 300.6001,-565.9386"/>
</g>
<!-- newepoch -->
<g id="node10" class="node">
<title>newepoch</title>
<ellipse fill="none" stroke="#000000" cx="300.2719" cy="-465.2" rx="50.3645" ry="18"/>
<text text-anchor="middle" x="300.2719" y="-461" font-family="Times,serif" font-size="14.00" fill="#000000">newepoch</text>
</g>
<!-- tick&#45;&gt;newepoch -->
<g id="edge13" class="edge">
<title>tick-&gt;newepoch</title>
<path fill="none" stroke="#000000" d="M280.165,-592.6411C273.4507,-582.4105 265.7691,-568.6962 262.2719,-555.2 258.2584,-539.7115 257.4427,-534.4538 262.2719,-519.2 265.4896,-509.036 271.3845,-499.1303 277.5867,-490.6365"/>
<polygon fill="#000000" stroke="#000000" points="280.4191,-492.6958 283.8036,-482.6561 274.8969,-488.394 280.4191,-492.6958"/>
</g>
<!-- bbody&#45;&gt;tick -->
<g id="edge6" class="edge">
<title>bbody-&gt;tick</title>
<path fill="none" stroke="#000000" stroke-dasharray="1,5" d="M311.53,-735.2535C307.7754,-710.6774 300.9956,-666.3008 296.5645,-637.2974"/>
<polygon fill="#000000" stroke="#000000" points="300.0185,-636.7294 295.0483,-627.3727 293.0987,-637.7866 300.0185,-636.7294"/>
</g>
<!-- bbody&#45;&gt;prtcl -->
<g id="edge7" class="edge">
<title>bbody-&gt;prtcl</title>
<path fill="none" stroke="#000000" stroke-dasharray="1,5" d="M328.8837,-736.5008C337.11,-727.0993 347.518,-715.2044 356.5717,-704.8573"/>
<polygon fill="#000000" stroke="#000000" points="359.2216,-707.1439 363.1727,-697.3134 353.9536,-702.5344 359.2216,-707.1439"/>
</g>
<!-- ledgers -->
<g id="node6" class="node">
<title>ledgers</title>
<ellipse fill="none" stroke="#000000" cx="166.2719" cy="-681.2" rx="38.842" ry="18"/>
<text text-anchor="middle" x="166.2719" y="-677" font-family="Times,serif" font-size="14.00" fill="#000000">ledgers</text>
</g>
<!-- bbody&#45;&gt;ledgers -->
<g id="edge5" class="edge">
<title>bbody-&gt;ledgers</title>
<path fill="none" stroke="#000000" d="M288.4922,-740.6586C264.6373,-729.0535 228.9411,-711.6877 202.2767,-698.7158"/>
<polygon fill="#000000" stroke="#000000" points="203.7795,-695.5548 193.256,-694.3274 200.7172,-701.8495 203.7795,-695.5548"/>
</g>
<!-- prtcl&#45;&gt;tick -->
<g id="edge9" class="edge">
<title>prtcl-&gt;tick</title>
<path fill="none" stroke="#000000" stroke-dasharray="1,5" d="M360.0709,-666.6297C347.6621,-656.1188 330.7294,-641.7758 316.8904,-630.0533"/>
<polygon fill="#000000" stroke="#000000" points="319.0499,-627.2957 309.1572,-623.5029 314.5255,-632.637 319.0499,-627.2957"/>
</g>
<!-- overlay -->
<g id="node7" class="node">
<title>overlay</title>
<ellipse fill="none" stroke="#000000" cx="377.2719" cy="-609.2" rx="39.9876" ry="18"/>
<text text-anchor="middle" x="377.2719" y="-605" font-family="Times,serif" font-size="14.00" fill="#000000">overlay</text>
</g>
<!-- prtcl&#45;&gt;overlay -->
<g id="edge10" class="edge">
<title>prtcl-&gt;overlay</title>
<path fill="none" stroke="#000000" d="M377.2719,-663.0314C377.2719,-655.331 377.2719,-646.1743 377.2719,-637.6166"/>
<polygon fill="#000000" stroke="#000000" points="380.772,-637.6132 377.2719,-627.6133 373.772,-637.6133 380.772,-637.6132"/>
</g>
<!-- updn -->
<g id="node8" class="node">
<title>updn</title>
<ellipse fill="none" stroke="#000000" cx="465.2719" cy="-609.2" rx="30.2015" ry="18"/>
<text text-anchor="middle" x="465.2719" y="-605" font-family="Times,serif" font-size="14.00" fill="#000000">updn</text>
</g>
<!-- prtcl&#45;&gt;updn -->
<g id="edge11" class="edge">
<title>prtcl-&gt;updn</title>
<path fill="none" stroke="#000000" d="M395.08,-666.6297C407.7588,-656.2562 424.9995,-642.1501 439.221,-630.5143"/>
<polygon fill="#000000" stroke="#000000" points="441.665,-633.037 447.1882,-623.9957 437.2323,-627.6193 441.665,-633.037"/>
</g>
<!-- tickn&#45;&gt;prtcl -->
<g id="edge8" class="edge">
<title>tickn-&gt;prtcl</title>
<path fill="none" stroke="#000000" stroke-dasharray="1,5" d="M422.1108,-736.8621C414.621,-727.5644 405.0978,-715.7426 396.7561,-705.3873"/>
<polygon fill="#000000" stroke="#000000" points="399.3799,-703.0652 390.3809,-697.4733 393.9286,-707.4565 399.3799,-703.0652"/>
</g>
<!-- ledgers&#45;&gt;ledgers -->
<g id="edge24" class="edge">
<title>ledgers-&gt;ledgers</title>
<path fill="none" stroke="#000000" d="M193.7993,-694.054C209.1015,-696.4534 223.1928,-692.1688 223.1928,-681.2 223.1928,-672.7164 214.7633,-668.2312 203.8638,-667.7444"/>
<polygon fill="#000000" stroke="#000000" points="203.5726,-664.2555 193.7993,-668.346 203.9904,-671.243 203.5726,-664.2555"/>
</g>
<!-- ledger -->
<g id="node17" class="node">
<title>ledger</title>
<ellipse fill="none" stroke="#000000" cx="166.2719" cy="-609.2" rx="35.3315" ry="18"/>
<text text-anchor="middle" x="166.2719" y="-605" font-family="Times,serif" font-size="14.00" fill="#000000">ledger</text>
</g>
<!-- ledgers&#45;&gt;ledger -->
<g id="edge25" class="edge">
<title>ledgers-&gt;ledger</title>
<path fill="none" stroke="#000000" d="M160.3562,-663.4022C159.5664,-655.5271 159.3373,-646.075 159.669,-637.2852"/>
<polygon fill="#000000" stroke="#000000" points="163.1788,-637.2532 160.3517,-627.0425 156.1943,-636.7876 163.1788,-637.2532"/>
</g>
<!-- ocert -->
<g id="node11" class="node">
<title>ocert</title>
<ellipse fill="none" stroke="#000000" cx="377.2719" cy="-537.2" rx="30.1746" ry="18"/>
<text text-anchor="middle" x="377.2719" y="-533" font-family="Times,serif" font-size="14.00" fill="#000000">ocert</text>
</g>
<!-- overlay&#45;&gt;ocert -->
<g id="edge14" class="edge">
<title>overlay-&gt;ocert</title>
<path fill="none" stroke="#000000" d="M377.2719,-591.0314C377.2719,-583.331 377.2719,-574.1743 377.2719,-565.6166"/>
<polygon fill="#000000" stroke="#000000" points="380.772,-565.6132 377.2719,-555.6133 373.772,-565.6133 380.772,-565.6132"/>
</g>
<!-- rupd&#45;&gt;newepoch -->
<g id="edge15" class="edge">
<title>rupd-&gt;newepoch</title>
<path fill="none" stroke="#000000" stroke-dasharray="1,5" d="M300.2719,-519.0314C300.2719,-511.331 300.2719,-502.1743 300.2719,-493.6166"/>
<polygon fill="#000000" stroke="#000000" points="303.772,-493.6132 300.2719,-483.6133 296.772,-493.6133 303.772,-493.6132"/>
</g>
<!-- mir -->
<g id="node12" class="node">
<title>mir</title>
<ellipse fill="none" stroke="#000000" cx="335.2719" cy="-393.2" rx="27" ry="18"/>
<text text-anchor="middle" x="335.2719" y="-389" font-family="Times,serif" font-size="14.00" fill="#000000">mir</text>
</g>
<!-- newepoch&#45;&gt;mir -->
<g id="edge16" class="edge">
<title>newepoch-&gt;mir</title>
<path fill="none" stroke="#000000" d="M308.9236,-447.4022C312.9801,-439.0574 317.8974,-428.9417 322.3804,-419.7197"/>
<polygon fill="#000000" stroke="#000000" points="325.6163,-421.0685 326.8405,-410.5446 319.3207,-418.0081 325.6163,-421.0685"/>
</g>
<!-- epoch -->
<g id="node13" class="node">
<title>epoch</title>
<ellipse fill="none" stroke="#000000" cx="307.2719" cy="-321.2" rx="34.191" ry="18"/>
<text text-anchor="middle" x="307.2719" y="-317" font-family="Times,serif" font-size="14.00" fill="#000000">epoch</text>
</g>
<!-- newepoch&#45;&gt;epoch -->
<g id="edge17" class="edge">
<title>newepoch-&gt;epoch</title>
<path fill="none" stroke="#000000" d="M299.1637,-446.9002C298.2743,-428.6953 297.4464,-399.9781 299.2719,-375.2 299.8986,-366.6935 301.0734,-357.4939 302.3335,-349.1399"/>
<polygon fill="#000000" stroke="#000000" points="305.8116,-349.5546 303.9404,-339.1264 298.9001,-348.4455 305.8116,-349.5546"/>
</g>
<!-- mir&#45;&gt;epoch -->
<g id="edge18" class="edge">
<title>mir-&gt;epoch</title>
<path fill="none" stroke="#000000" stroke-dasharray="1,5" d="M328.4939,-375.7708C325.3085,-367.5798 321.4362,-357.6225 317.8758,-348.4671"/>
<polygon fill="#000000" stroke="#000000" points="321.0685,-347.0203 314.182,-338.9689 314.5445,-349.5575 321.0685,-347.0203"/>
</g>
<!-- snap -->
<g id="node14" class="node">
<title>snap</title>
<ellipse fill="none" stroke="#000000" cx="261.2719" cy="-177.2" rx="28.9735" ry="18"/>
<text text-anchor="middle" x="261.2719" y="-173" font-family="Times,serif" font-size="14.00" fill="#000000">snap</text>
</g>
<!-- epoch&#45;&gt;snap -->
<g id="edge19" class="edge">
<title>epoch-&gt;snap</title>
<path fill="none" stroke="#000000" d="M288.831,-305.7514C278.5793,-295.9144 266.8035,-282.224 261.2719,-267.2 253.961,-247.3435 254.3849,-223.3099 256.4061,-205.0751"/>
<polygon fill="#000000" stroke="#000000" points="259.8859,-205.4582 257.7344,-195.0841 252.947,-204.5356 259.8859,-205.4582"/>
</g>
<!-- newpp -->
<g id="node15" class="node">
<title>newpp</title>
<ellipse fill="none" stroke="#000000" cx="307.2719" cy="-249.2" rx="36.5613" ry="18"/>
<text text-anchor="middle" x="307.2719" y="-245" font-family="Times,serif" font-size="14.00" fill="#000000">newpp</text>
</g>
<!-- epoch&#45;&gt;newpp -->
<g id="edge20" class="edge">
<title>epoch-&gt;newpp</title>
<path fill="none" stroke="#000000" d="M307.2719,-303.0314C307.2719,-295.331 307.2719,-286.1743 307.2719,-277.6166"/>
<polygon fill="#000000" stroke="#000000" points="310.772,-277.6132 307.2719,-267.6133 303.772,-277.6133 310.772,-277.6132"/>
</g>
<!-- poolreap -->
<g id="node16" class="node">
<title>poolreap</title>
<ellipse fill="none" stroke="#000000" cx="362.2719" cy="-177.2" rx="44.6453" ry="18"/>
<text text-anchor="middle" x="362.2719" y="-173" font-family="Times,serif" font-size="14.00" fill="#000000">poolreap</text>
</g>
<!-- epoch&#45;&gt;poolreap -->
<g id="edge21" class="edge">
<title>epoch-&gt;poolreap</title>
<path fill="none" stroke="#000000" d="M325.1739,-305.5376C335.2345,-295.6248 346.9987,-281.9298 353.2719,-267.2 361.6042,-247.6352 363.6395,-223.5847 363.7084,-205.2692"/>
<polygon fill="#000000" stroke="#000000" points="367.2074,-205.1704 363.5544,-195.2253 360.2082,-205.2778 367.2074,-205.1704"/>
</g>
<!-- newpp&#45;&gt;snap -->
<g id="edge22" class="edge">
<title>newpp-&gt;snap</title>
<path fill="none" stroke="#000000" stroke-dasharray="1,5" d="M296.1366,-231.7708C290.5179,-222.9763 283.5983,-212.1457 277.4087,-202.4577"/>
<polygon fill="#000000" stroke="#000000" points="280.3213,-200.5155 271.9879,-193.9729 274.4224,-204.2843 280.3213,-200.5155"/>
</g>
<!-- newpp&#45;&gt;poolreap -->
<g id="edge23" class="edge">
<title>newpp-&gt;poolreap</title>
<path fill="none" stroke="#000000" stroke-dasharray="1,5" d="M320.3061,-232.137C326.9889,-223.3886 335.265,-212.5545 342.6968,-202.8256"/>
<polygon fill="#000000" stroke="#000000" points="345.6601,-204.7121 348.9491,-194.6407 340.0973,-200.4627 345.6601,-204.7121"/>
</g>
<!-- ledger&#45;&gt;ledgers -->
<g id="edge26" class="edge">
<title>ledger-&gt;ledgers</title>
<path fill="none" stroke="#000000" stroke-dasharray="1,5" d="M172.1921,-627.0425C172.9797,-634.9236 173.2066,-644.3774 172.8728,-653.1647"/>
<polygon fill="#000000" stroke="#000000" points="169.3634,-653.1908 172.1876,-663.4022 176.3477,-653.6583 169.3634,-653.1908"/>
</g>
<!-- utxow -->
<g id="node18" class="node">
<title>utxow</title>
<ellipse fill="none" stroke="#000000" cx="166.2719" cy="-537.2" rx="35.3548" ry="18"/>
<text text-anchor="middle" x="166.2719" y="-533" font-family="Times,serif" font-size="14.00" fill="#000000">utxow</text>
</g>
<!-- ledger&#45;&gt;utxow -->
<g id="edge27" class="edge">
<title>ledger-&gt;utxow</title>
<path fill="none" stroke="#000000" d="M166.2719,-591.0314C166.2719,-583.331 166.2719,-574.1743 166.2719,-565.6166"/>
<polygon fill="#000000" stroke="#000000" points="169.772,-565.6132 166.2719,-555.6133 162.772,-565.6133 169.772,-565.6132"/>
</g>
<!-- delegs -->
<g id="node19" class="node">
<title>delegs</title>
<ellipse fill="none" stroke="#000000" cx="103.2719" cy="-465.2" rx="35.9135" ry="18"/>
<text text-anchor="middle" x="103.2719" y="-461" font-family="Times,serif" font-size="14.00" fill="#000000">delegs</text>
</g>
<!-- ledger&#45;&gt;delegs -->
<g id="edge28" class="edge">
<title>ledger-&gt;delegs</title>
<path fill="none" stroke="#000000" d="M149.7146,-593.1409C140.2921,-583.0875 129.0516,-569.384 122.2719,-555.2 112.9455,-535.6883 108.1695,-511.6348 105.7394,-493.3046"/>
<polygon fill="#000000" stroke="#000000" points="109.2016,-492.7765 104.5631,-483.251 102.249,-493.59 109.2016,-492.7765"/>
</g>
<!-- utxow&#45;&gt;delegs -->
<g id="edge30" class="edge">
<title>utxow-&gt;delegs</title>
<path fill="none" stroke="#000000" stroke-dasharray="1,5" d="M151.6601,-520.5008C143.6291,-511.3226 133.5189,-499.768 124.6193,-489.5971"/>
<polygon fill="#000000" stroke="#000000" points="127.0236,-487.0297 117.8045,-481.8087 121.7555,-491.6392 127.0236,-487.0297"/>
</g>
<!-- utxo -->
<g id="node20" class="node">
<title>utxo</title>
<ellipse fill="none" stroke="#000000" cx="203.2719" cy="-465.2" rx="28.4127" ry="18"/>
<text text-anchor="middle" x="203.2719" y="-461" font-family="Times,serif" font-size="14.00" fill="#000000">utxo</text>
</g>
<!-- utxow&#45;&gt;utxo -->
<g id="edge29" class="edge">
<title>utxow-&gt;utxo</title>
<path fill="none" stroke="#000000" d="M175.2285,-519.7708C179.5915,-511.2807 184.9297,-500.8929 189.7733,-491.4674"/>
<polygon fill="#000000" stroke="#000000" points="192.94,-492.9628 194.3977,-482.4687 186.7139,-489.7633 192.94,-492.9628"/>
</g>
<!-- delegs&#45;&gt;delegs -->
<g id="edge32" class="edge">
<title>delegs-&gt;delegs</title>
<path fill="none" stroke="#000000" d="M128.6888,-477.9584C143.3395,-480.5622 156.978,-476.3094 156.978,-465.2 156.978,-456.7812 149.1457,-452.2999 138.976,-451.7563"/>
<polygon fill="#000000" stroke="#000000" points="138.434,-448.2845 128.6888,-452.4416 138.8993,-455.2691 138.434,-448.2845"/>
</g>
<!-- delpl -->
<g id="node22" class="node">
<title>delpl</title>
<ellipse fill="none" stroke="#000000" cx="103.2719" cy="-393.2" rx="30.1958" ry="18"/>
<text text-anchor="middle" x="103.2719" y="-389" font-family="Times,serif" font-size="14.00" fill="#000000">delpl</text>
</g>
<!-- delegs&#45;&gt;delpl -->
<g id="edge33" class="edge">
<title>delegs-&gt;delpl</title>
<path fill="none" stroke="#000000" d="M97.3562,-447.4022C96.5664,-439.5271 96.3373,-430.075 96.669,-421.2852"/>
<polygon fill="#000000" stroke="#000000" points="100.1788,-421.2532 97.3517,-411.0425 93.1943,-420.7876 100.1788,-421.2532"/>
</g>
<!-- ppup -->
<g id="node21" class="node">
<title>ppup</title>
<ellipse fill="none" stroke="#000000" cx="203.2719" cy="-393.2" rx="30.2015" ry="18"/>
<text text-anchor="middle" x="203.2719" y="-389" font-family="Times,serif" font-size="14.00" fill="#000000">ppup</text>
</g>
<!-- utxo&#45;&gt;ppup -->
<g id="edge31" class="edge">
<title>utxo-&gt;ppup</title>
<path fill="none" stroke="#000000" d="M203.2719,-447.0314C203.2719,-439.331 203.2719,-430.1743 203.2719,-421.6166"/>
<polygon fill="#000000" stroke="#000000" points="206.772,-421.6132 203.2719,-411.6133 199.772,-421.6133 206.772,-421.6132"/>
</g>
<!-- delpl&#45;&gt;delegs -->
<g id="edge34" class="edge">
<title>delpl-&gt;delegs</title>
<path fill="none" stroke="#000000" stroke-dasharray="1,5" d="M109.1921,-411.0425C109.9797,-418.9236 110.2066,-428.3774 109.8728,-437.1647"/>
<polygon fill="#000000" stroke="#000000" points="106.3634,-437.1908 109.1876,-447.4022 113.3477,-437.6583 106.3634,-437.1908"/>
</g>
<!-- deleg -->
<g id="node23" class="node">
<title>deleg</title>
<ellipse fill="none" stroke="#000000" cx="64.2719" cy="-321.2" rx="31.9012" ry="18"/>
<text text-anchor="middle" x="64.2719" y="-317" font-family="Times,serif" font-size="14.00" fill="#000000">deleg</text>
</g>
<!-- delpl&#45;&gt;deleg -->
<g id="edge35" class="edge">
<title>delpl-&gt;deleg</title>
<path fill="none" stroke="#000000" d="M93.8311,-375.7708C89.2322,-367.2807 83.6055,-356.8929 78.5001,-347.4674"/>
<polygon fill="#000000" stroke="#000000" points="81.4662,-345.5946 73.6257,-338.4687 75.3111,-348.9286 81.4662,-345.5946"/>
</g>
<!-- pool -->
<g id="node24" class="node">
<title>pool</title>
<ellipse fill="none" stroke="#000000" cx="142.2719" cy="-321.2" rx="28.4127" ry="18"/>
<text text-anchor="middle" x="142.2719" y="-317" font-family="Times,serif" font-size="14.00" fill="#000000">pool</text>
</g>
<!-- delpl&#45;&gt;pool -->
<g id="edge36" class="edge">
<title>delpl-&gt;pool</title>
<path fill="none" stroke="#000000" d="M112.7127,-375.7708C117.3115,-367.2807 122.9382,-356.8929 128.0437,-347.4674"/>
<polygon fill="#000000" stroke="#000000" points="131.2326,-348.9286 132.918,-338.4687 125.0776,-345.5946 131.2326,-348.9286"/>
</g>
</g>
</svg>